<svg xmlns="http://www.w3.org/2000/svg" viewBox="0 0 128 128"><path fill="#1572B6" d="M19.5 114.1L8.1 0h111.8l-11.4 114.1L63.9 128"/><path fill="#33A9DC" d="M64 117.1l36.8-10.2 9.8-98.1H64"/><path fill="#fff" d="M64 66.5H47.1l-1.1-12.2H64V42.3H34.6l.3 3.6 3.1 34.7H64v-14.1zm0 28.7l-.1.1-14.7-4-1-11.2H37.9l2 22.2 24 .7.1-.1v-7.7zm0-57.2V31.2h-27l.3 3.6 2.7 29.7H64V51.8H47.1l-1.1-12.2H64z"/><path fill="#EBEBEB" d="M63.9 66.5v12.1h13.7l-1.3 14.2-12.4 3.3v7.7l24-.7 2-22.2h-13.6l.4-4.5h13.2l2.7-29.7.3-3.6h-27v12.1h13.7l-1.1 12.2H63.9zm0-35.3V31.2h27l-.3 3.6-2.7 29.7H63.9V51.8h16.9l1.1-12.2H63.9z"/></svg>
