<svg xmlns="http://www.w3.org/2000/svg" viewBox="0 0 128 128"><path fill="#F7DF1E" d="M1.408 1.408h125.184v125.185H1.408z"/><path d="M116.042 116.042H11.958V11.958h104.084z" fill="#F7DF1E"/><path d="M67.617 104.6c0 8.484-4.984 12.393-12.25 12.393-6.574 0-10.393-3.41-12.345-7.563l6.746-4.09c1.294 2.294 2.47 4.24 5.29 4.24 2.7 0 4.42-1.06 4.42-5.18V60.5h7.14zm18.13 12.393c-7.6 0-12.52-3.626-14.89-8.37l6.746-3.91c1.78 2.93 4.1 5.1 8.18 5.1 3.44 0 5.64-1.72 5.64-4.1 0-2.85-2.25-3.86-6.06-5.52l-2.08-.89c-6-2.56-9.99-5.78-9.99-12.57 0-6.26 4.77-11.03 12.22-11.03 5.3 0 9.11 1.85 11.84 6.7l-6.56 4.21c-1.44-2.56-3-3.56-5.28-3.56-2.41 0-3.95 1.54-3.95 3.56 0 2.5 1.54 3.51 5.1 5.05l2.08.89c7.08 3.03 11.07 6.09 11.07 13.01-.01 7.45-5.85 11.5-13.7 11.5z"/></svg>
